PathFileType	4	(X/Y/Z)	C:/Users/opensim2020/Desktop/walking_exp_matlab/subject01_walking15_straight_04.trc	
DataRate	CameraRate	NumFrames	NumMarkers	Units	OrigDataRate	OrigDataStartFrame	OrigNumFrames	
100.00	100.00	5	43	mm	100.00	2120	105	
Frame#	Time	LFHD			RFHD			LBHD			RBHD			C7			T10			CLAV			STRN			RBAK			LSHO			LUPA			LELB			LFRM			LWRA			LWRB			LFIN			RSHO			RUPA			RELB			RFRM			RWRA			RWRB			RFIN			LASI			RASI			LPSI			RPSI			LTHI			LKNE			LTIB			LANK			LHEE			LTOE			RTHI			RKNE			RTIB			RANK			RHEE			RTOE			*39			*40			*41			*42			
		X1	Y1	Z1	X2	Y2	Z2	X3	Y3	Z3	X4	Y4	Z4	X5	Y5	Z5	X6	Y6	Z6	X7	Y7	Z7	X8	Y8	Z8	X9	Y9	Z9	X10	Y10	Z10	X11	Y11	Z11	X12	Y12	Z12	X13	Y13	Z13	X14	Y14	Z14	X15	Y15	Z15	X16	Y16	Z16	X17	Y17	Z17	X18	Y18	Z18	X19	Y19	Z19	X20	Y20	Z20	X21	Y21	Z21	X22	Y22	Z22	X23	Y23	Z23	X24	Y24	Z24	X25	Y25	Z25	X26	Y26	Z26	X27	Y27	Z27	X28	Y28	Z28	X29	Y29	Z29	X30	Y30	Z30	X31	Y31	Z31	X32	Y32	Z32	X33	Y33	Z33	X34	Y34	Z34	X35	Y35	Z35	X36	Y36	Z36	X37	Y37	Z37	X38	Y38	Z38	X39	Y39	Z39	X40	Y40	Z40	X41	Y41	Z41	X42	Y42	Z42	X43	Y43	Z43	

40	0.390	-941.12897	301.06378	1657.69434	-1047.65125	261.34015	1668.46362	-979.96661	414.80032	1627.14465	-1093.80225	376.21683	1637.90686	-1023.26556	457.91299	1434.04309	-1047.59326	512.56055	1144.62183	-1026.75281	315.54074	1361.93115	-1029.72681	279.33417	1205.32996	-1109.87817	524.85022	1250.43872	-865.18335	376.65741	1391.65869	-785.62872	410.71512	1208.02295	-792.84082	431.55865	1054.92480	-777.17767	381.02090	948.97913	-803.10858	287.50449	846.85638	-780.94958	341.43063	833.08057	-771.70428	286.23300	771.76160	-1175.82458	378.75360	1402.74463	-1282.19592	464.70950	1217.96216	-1288.68042	476.12064	1091.59094	-1323.18579	461.19153	972.22852	-1309.65137	391.83575	847.81482	-1346.15564	435.80234	853.27930	-1354.65979	402.36118	775.20483	-949.12299	346.00540	934.97223	-1164.78491	348.08530	936.59558	-1004.31201	530.87939	946.39844	-1148.92676	528.03784	946.89148	-907.78357	378.74533	597.15582	-930.68213	391.16425	462.58078	-930.04248	468.46161	287.93130	-993.07880	531.57739	81.78819	-1048.16870	579.36945	58.36462	-984.42383	390.47516	35.74954	-1245.09229	312.93784	614.63538	-1232.51379	260.75525	463.31549	-1230.20935	372.93979	326.59625	-1179.55994	478.47147	151.32491	-1122.15698	532.82043	133.06380	-1192.55444	373.50330	57.97532	-1024.90149	275.04663	1701.44885	-3102.05786	1973.19543	1023.52405	-3140.72925	2012.47021	1022.03632			 
41	0.400	-941.12524	287.12875	1657.80493	-1047.63135	247.02562	1668.24194	-980.23608	400.77277	1627.48145	-1093.98523	361.83902	1637.93884	-1022.92181	444.26767	1434.22095	-1046.98718	499.47864	1144.82373	-1026.65564	301.99698	1361.90833	-1029.46606	265.92596	1205.31238	-1108.93213	511.56842	1250.36926	-864.96783	362.77698	1392.03064	-784.79059	396.25916	1208.73645	-791.28204	415.67108	1054.93286	-776.39508	360.39542	950.85095	-803.12042	262.15570	853.71472	-781.12921	315.24408	837.09668	-772.41028	256.82251	778.48920	-1175.66858	365.55872	1402.76721	-1281.63184	452.46826	1217.95459	-1287.99744	464.75067	1092.12317	-1322.98120	453.66876	972.97156	-1310.72522	388.63367	846.06653	-1346.80835	432.70169	853.27509	-1356.28320	402.20328	774.25635	-948.70251	333.68030	934.58978	-1164.27417	334.42148	937.09692	-1004.23810	517.95813	946.63702	-1148.98853	514.59357	947.01050	-907.38885	371.82562	597.29181	-930.21069	387.12991	462.77396	-930.26782	466.37265	288.86292	-993.64587	530.82715	82.95304	-1048.80420	578.72791	60.05257	-984.51843	390.27710	35.62410	-1243.99207	295.08377	616.53735	-1230.13892	240.23581	465.63968	-1229.41125	344.17438	321.85660	-1179.61279	439.33072	140.66556	-1122.51465	492.63489	118.23132	-1193.49158	327.79196	55.93979	-1024.85779	260.70605	1701.26306	-3101.96021	1973.19983	1023.45172	-3140.76050	2012.53247	1022.04095			 
42	0.410	-941.07745	273.17737	1657.89722	-1047.63196	232.73470	1667.93042	-980.59955	386.76077	1627.68933	-1094.24353	347.48334	1637.82324	-1022.60938	430.63513	1434.29224	-1046.42908	486.21127	1144.90576	-1026.62378	288.42032	1361.73743	-1029.34717	252.59196	1205.14441	-1108.16455	498.18179	1250.17200	-864.85669	348.85815	1392.22681	-784.10956	381.85089	1209.18262	-789.60065	399.83871	1054.89441	-775.64514	339.99057	952.87061	-803.16400	237.18576	861.00537	-781.38361	289.24741	841.50696	-773.00940	227.87334	785.99353	-1175.60852	352.31885	1402.59839	-1281.16077	440.43671	1217.99756	-1287.36194	453.53271	1092.59363	-1322.90991	446.01968	973.79681	-1311.76294	385.21487	844.65125	-1347.46960	429.31070	853.63293	-1357.40259	401.67847	773.40808	-948.24274	320.62738	934.37708	-1163.78186	320.67877	937.47308	-1004.41406	505.05463	946.76532	-1149.20898	501.07468	946.92365	-907.21936	364.97348	597.38489	-929.76300	382.94641	462.91861	-930.46704	464.25967	289.87186	-994.09711	530.42395	84.55743	-1049.20215	578.49182	62.32893	-984.66754	390.08163	35.52788	-1243.35034	277.63580	618.33392	-1227.83093	220.30240	467.64377	-1228.96204	315.22992	317.25452	-1179.85474	399.23166	130.12669	-1123.32471	451.18213	103.79437	-1194.09216	281.96295	54.34188	-1025.08252	246.34634	1700.99036	-3102.03540	1973.19897	1023.53351	-3140.82349	2012.54248	1022.11639			 
43	0.420	-941.29840	259.24283	1657.76318	-1047.67957	218.45015	1667.46545	-981.02710	372.74353	1627.71484	-1094.59924	333.17432	1637.57813	-1022.36096	416.92487	1434.24841	-1046.06824	472.96381	1144.93311	-1026.67249	274.75858	1361.49158	-1029.26831	239.12029	1204.88501	-1107.55249	484.79294	1249.92041	-864.78833	334.97119	1392.22754	-783.59100	367.54633	1209.39551	-787.97595	383.98111	1054.72876	-774.85443	319.62515	955.04340	-803.21472	212.57664	868.64185	-781.64526	263.59686	846.38715	-773.39954	199.36760	794.14972	-1175.45496	339.02960	1402.21240	-1280.52808	428.60626	1217.96436	-1286.82410	442.40411	1093.02051	-1322.91455	438.22098	974.67206	-1312.61133	381.30484	843.59729	-1348.23596	425.46143	854.12958	-1358.80652	400.51077	772.93671	-947.98492	307.88892	934.03827	-1163.23047	306.84323	937.60083	-1004.81042	491.98358	946.74957	-1149.56079	487.39337	946.60498	-907.08868	357.93585	597.46112	-929.49237	378.64417	463.11630	-930.64923	462.22690	290.97580	-994.34662	529.74982	86.02531	-1049.52441	577.85144	64.51644	-984.52527	390.18744	35.56692	-1242.66467	260.42068	619.67609	-1225.52515	201.29802	469.24448	-1228.49377	286.88522	312.98975	-1181.18311	358.49347	120.49794	-1125.36853	408.64984	90.21356	-1195.18933	235.95544	53.41243	-1025.26672	231.96616	1700.82800	-3101.96558	1973.13867	1023.49225	-3140.73413	2012.49109	1022.12512			 
44	0.430	-941.58020	245.10649	1657.33923	-1047.84521	204.15515	1666.86902	-981.50067	358.79355	1627.67175	-1095.04224	318.89536	1637.32227	-1022.24249	403.16571	1434.09644	-1045.81641	459.52481	1144.76697	-1026.78845	261.10907	1361.06360	-1029.30286	225.70346	1204.47351	-1107.11353	471.32764	1249.61475	-864.84387	320.98557	1392.08020	-783.21429	353.35715	1209.36914	-786.35541	367.98932	1054.37805	-774.13763	299.34302	957.38116	-803.27509	188.36298	876.53888	-781.77789	238.18297	851.49774	-773.73132	171.48885	802.83057	-1175.50989	325.64359	1401.85217	-1279.99902	416.91959	1217.91870	-1286.37378	431.36951	1093.43970	-1322.97681	430.28149	975.53876	-1313.50696	377.36200	842.63739	-1349.05371	421.14841	854.84167	-1359.77783	398.86624	772.62494	-947.62488	294.86935	933.68585	-1162.83167	292.83557	937.52930	-1005.35925	478.77802	946.53986	-1150.07043	473.82108	946.08026	-907.04718	350.79837	597.46912	-929.20642	374.40607	463.37711	-930.79285	460.05447	292.18338	-994.44952	529.07568	87.81116	-1049.66833	577.22034	66.93038	-984.70081	389.91162	35.53433	-1242.30249	243.53175	620.57416	-1223.21509	183.29340	470.59195	-1228.47314	258.71243	309.20279	-1182.73242	317.23883	111.61562	-1127.54541	365.79279	77.82636	-1195.92712	189.96405	53.25158	-1025.44714	217.63882	1700.27734	-3101.97144	1973.17334	1023.47034	-3140.74951	2012.52136	1022.10071			 
